<svg width="48" height="48" viewBox="0 0 48 48" fill="none" xmlns="http://www.w3.org/2000/svg">
<rect width="48" height="48" fill="#323238"/>
<path fill-rule="evenodd" clip-rule="evenodd" d="M34.6493 13.3861C31.8283 10.5778 28.0837 9.03111 24.0885 9.02399C15.8546 9.02399 9.16009 15.6954 9.15293 23.885C9.15293 26.508 9.84028 29.0596 11.1434 31.3191L9.02405 39.024L16.9429 36.957C19.1267 38.1402 21.5825 38.7674 24.0813 38.7674H24.0885C32.3152 38.7674 39.0169 32.096 39.024 23.8993C39.024 19.9292 37.4703 16.1943 34.6493 13.3861ZM24.0885 36.2585C21.8546 36.2585 19.6708 35.6598 17.7663 34.5336L17.3152 34.2628L12.6183 35.4887L13.8713 30.9271L13.5777 30.4566C12.3319 28.4894 11.6804 26.2157 11.6804 23.885C11.6804 17.071 17.2508 11.5329 24.0956 11.5329C27.4107 11.5329 30.5252 12.823 32.8737 15.1537C35.215 17.4916 36.5038 20.5921 36.5038 23.8921C36.4966 30.7132 30.9262 36.2585 24.0885 36.2585ZM30.8976 26.9998C30.5252 26.8144 28.6923 25.9164 28.3486 25.7881C28.005 25.6669 27.7544 25.6027 27.5109 25.9734C27.2603 26.344 26.5443 27.1851 26.3295 27.4274C26.1147 27.6769 25.8928 27.7054 25.5205 27.5201C25.1481 27.3348 23.9453 26.9427 22.5205 25.674C21.4107 24.6904 20.6661 23.4716 20.4441 23.101C20.2293 22.7303 20.4226 22.5308 20.6088 22.3454C20.7735 22.1815 20.9811 21.9107 21.1672 21.6968C21.3534 21.483 21.4178 21.3262 21.5396 21.0767C21.6613 20.8273 21.604 20.6134 21.5109 20.4281C21.4178 20.2428 20.6732 18.411 20.3582 17.6697C20.0575 16.9427 19.7496 17.0425 19.5205 17.0354C19.3057 17.0211 19.0551 17.0211 18.8045 17.0211C18.5539 17.0211 18.1529 17.1138 17.8093 17.4844C17.4656 17.8551 16.5061 18.7531 16.5061 20.5849C16.5061 22.4167 17.845 24.1772 18.0312 24.4267C18.2174 24.6762 20.6589 28.4253 24.4035 30.0361C25.2913 30.421 25.9859 30.6491 26.53 30.8201C27.425 31.1052 28.2341 31.0625 28.8785 30.9698C29.5945 30.8629 31.0837 30.0717 31.3987 29.2022C31.7066 28.3326 31.7066 27.5913 31.6135 27.4345C31.5205 27.2777 31.2699 27.1851 30.8976 26.9998Z" fill="white"/>
<path d="M28.3486 25.7881C28.6923 25.9164 30.5252 26.8144 30.8976 26.9998C31.2699 27.1851 31.5205 27.2777 31.6135 27.4345C31.7066 27.5913 31.7066 28.3326 31.3987 29.2022C31.0837 30.0717 29.5945 30.8629 28.8785 30.9698C28.2341 31.0625 27.425 31.1052 26.53 30.8201C25.9859 30.6491 25.2913 30.421 24.4035 30.0361C20.6589 28.4253 18.2174 24.6762 18.0312 24.4267C17.845 24.1772 16.5061 22.4167 16.5061 20.5849C16.5061 18.7531 17.4656 17.8551 17.8093 17.4844C18.1529 17.1138 18.5539 17.0211 18.8045 17.0211C19.0551 17.0211 19.3057 17.0211 19.5205 17.0354C19.7496 17.0425 20.0575 16.9427 20.3582 17.6697C20.6732 18.411 21.4178 20.2428 21.5109 20.4281C21.604 20.6134 21.6613 20.8273 21.5396 21.0767C21.4178 21.3262 21.3534 21.483 21.1672 21.6968C20.9811 21.9107 20.7735 22.1815 20.6088 22.3454C20.4226 22.5308 20.2293 22.7303 20.4441 23.101C20.6661 23.4716 21.4107 24.6904 22.5205 25.674C23.9453 26.9427 25.1481 27.3348 25.5205 27.5201C25.8928 27.7054 26.1147 27.6769 26.3295 27.4274C26.5443 27.1851 27.2603 26.344 27.5109 25.9734C27.7544 25.6027 28.005 25.6669 28.3486 25.7881Z" fill="white"/>
</svg>
